<?xml version="1.0" encoding="UTF-8"?>
<svg width="94px" height="64px" viewBox="0 0 94 64" version="1.1" xmlns="http://www.w3.org/2000/svg" xmlns:xlink="http://www.w3.org/1999/xlink">
    <!-- Generator: Sketch 52.6 (67491) - http://www.bohemiancoding.com/sketch -->
    <title>Icon</title>
    <desc>Created with Sketch.</desc>
    <g id="1920" stroke="none" stroke-width="1" fill="none" fill-rule="evenodd">
        <g id="1.2-1920" transform="translate(-30.000000, -30.000000)" fill="#1C1C1B">
            <g id="Navigation" transform="translate(30.000000, 30.000000)">
                <g id="Icon">
                    <path d="M92.4234295,14.5152632 L78.5971248,22.8102644 L78.5971248,19.7248562 L92.4234295,11.4292899 L92.4234295,14.5152632 Z M77.8085587,18.3505498 L63.9440614,10.0323798 L77.807997,1.7170353 L91.6724944,10.0329449 L77.8085587,18.3505498 Z M77.0205542,22.8108294 L63.1936879,14.5152632 L63.1936879,11.4304201 L77.0205542,19.7254213 L77.0205542,22.8108294 Z M61.6143091,14.5152632 L47.7880044,22.8108294 L47.7880044,19.7248562 L61.6143091,11.429855 L61.6143091,14.5152632 Z M47,18.3511149 L33.134941,10.0329449 L47,1.7170353 L60.865059,10.0329449 L47,18.3511149 Z M46.2119956,22.8108294 L32.3851292,14.5152632 L32.3851292,11.429855 L46.2119956,19.7248562 L46.2119956,22.8108294 Z M30.8057504,14.5152632 L16.9794458,22.8108294 L16.9794458,19.7248562 L30.8057504,11.4304201 L30.8057504,14.5152632 Z M16.1908797,18.3511149 L2.32750565,10.0329449 L16.1908797,1.7170353 L30.0559386,10.0323798 L16.1908797,18.3511149 Z M15.4028752,22.8108294 L1.57657055,14.5152632 L1.57657055,11.4292899 L15.4028752,19.7248562 L15.4028752,22.8108294 Z M93.9724788,9.82668596 C93.9663006,9.80577751 93.9556291,9.78712944 93.9477659,9.76678609 C93.9326012,9.72270883 93.9168748,9.67806648 93.8938469,9.63794487 C93.8809288,9.61477605 93.8623941,9.59556289 93.8466677,9.57408935 C93.8225165,9.54018377 93.8006118,9.50571309 93.770844,9.47576316 C93.7478161,9.45202925 93.7191716,9.43451136 93.6922121,9.41360292 C93.6669375,9.39325957 93.6439096,9.36952566 93.6152651,9.35200778 L93.6029087,9.34466157 L93.6012237,9.34353138 L93.6001004,9.34296629 L78.2112666,0.112736068 C77.9624526,-0.0375786892 77.6529798,-0.0375786892 77.4041658,0.112736068 L62.4039985,9.11014794 L47.4038312,0.112736068 C47.1544556,-0.0375786892 46.8455444,-0.0375786892 46.5961688,0.112736068 L31.5965631,9.11014794 L16.5947109,0.112170975 C16.3458969,-0.0370135961 16.036424,-0.0375786892 15.7876101,0.112736068 L0.399899619,9.34296629 C0.399899619,9.34296629 0.399337962,9.34353138 0.398776305,9.34353138 L0.397091335,9.34466157 L0.384734886,9.35200778 C0.356090391,9.36952566 0.333062463,9.39325957 0.307226252,9.41360292 C0.280828384,9.43451136 0.252183889,9.45202925 0.229155961,9.47576316 C0.199388153,9.50571309 0.177483539,9.54018377 0.153332298,9.57408935 C0.137605908,9.59556289 0.119071235,9.61477605 0.106153129,9.63794487 C0.0825635449,9.67806648 0.0673988122,9.72270883 0.0522340794,9.76678609 C0.0443708847,9.78712944 0.0331377493,9.80577751 0.0275211816,9.82668596 C0.00954816506,9.89336694 0,9.96230829 0,10.0329449 L0,14.9656423 C0,15.2447983 0.14603076,15.5036109 0.384734886,15.6465795 L15.7876101,24.8875465 C15.7898567,24.8886767 15.7921033,24.8892418 15.7932267,24.8903719 C15.7965966,24.8920672 15.7982816,24.8948927 15.8016515,24.896588 C15.8426525,24.9197568 15.8864617,24.9338841 15.9302709,24.9491416 C15.9499289,24.9564878 15.9673403,24.9672246 15.9869982,24.9728755 C16.0538354,24.9903934 16.1223575,25 16.1908797,25 C16.2599634,25 16.3284856,24.9903934 16.3953227,24.9728755 C16.4149807,24.9672246 16.4323921,24.9564878 16.45205,24.9491416 C16.4952976,24.9338841 16.5396685,24.9197568 16.5806694,24.896588 C16.5840394,24.8948927 16.5857244,24.8920672 16.5885326,24.8903719 C16.5902176,24.8892418 16.5924642,24.8886767 16.5947109,24.8875465 L31.5960015,15.8890044 L46.5961688,24.8875465 C46.5984154,24.8886767 46.600662,24.8892418 46.6029087,24.8903719 C46.6051553,24.8920672 46.6074019,24.8948927 46.6107719,24.896588 C46.6512111,24.9197568 46.695582,24.9338841 46.7388296,24.9491416 C46.7584876,24.9564878 46.7764606,24.9672246 46.7961186,24.9728755 C46.8629557,24.9903934 46.9314779,25 47,25 C47.0685221,25 47.1370443,24.9903934 47.2038814,24.9728755 C47.2235394,24.9672246 47.2415124,24.9564878 47.2611704,24.9491416 C47.304418,24.9338841 47.3487889,24.9197568 47.3892281,24.896588 C47.3925981,24.8948927 47.3948447,24.8920672 47.3970913,24.8903719 C47.399338,24.8892418 47.4015846,24.8886767 47.4038312,24.8875465 L62.4051218,15.8884393 L77.4052891,24.8875465 C77.4075358,24.8886767 77.4097824,24.8892418 77.4114674,24.8903719 C77.413714,24.8920672 77.4159606,24.8948927 77.4193306,24.896588 C77.4597698,24.9197568 77.5047024,24.9338841 77.54795,24.9491416 C77.5676079,24.9564878 77.5850193,24.9672246 77.6046773,24.9728755 C77.6715144,24.9903934 77.7394749,25 77.8085587,25 C77.8776425,25 77.9461646,24.9903934 78.0130018,24.9728755 C78.0326597,24.9672246 78.0500711,24.9564878 78.0697291,24.9491416 C78.1129767,24.9338841 78.1579092,24.9197568 78.1983485,24.896588 C78.2017184,24.8948927 78.2039651,24.8920672 78.2062117,24.8903719 C78.2078967,24.8892418 78.2101433,24.8886767 78.2123899,24.8875465 L93.6152651,15.6465795 C93.8539692,15.5036109 94,15.2447983 94,14.9656423 L94,10.0329449 C94,9.96230829 93.9904518,9.89336694 93.9724788,9.82668596 Z" id="Fill-15"></path>
                    <g id="Group-29" transform="translate(0.000000, 40.000000)">
                        <polygon id="Fill-1" points="0 14.4233792 1.41353383 14.4233792 1.41353383 0.994807774 0 0.994807774"></polygon>
                        <polygon id="Fill-2" points="5.76514527 13.0342501 9.54135338 13.0342501 9.54135338 14.4233792 4.2406015 14.4233792 4.2406015 0.994807774 5.76514527 0.994807774"></polygon>
                        <g id="Group-28" transform="translate(15.252830, 0.000000)">
                            <path d="M13.6454602,7.54667964 C13.6574533,8.00165133 13.6487015,8.43770663 13.6188808,8.85647627 C13.5890602,9.27524591 13.5235843,9.68162206 13.4227774,10.076257 C13.3216464,10.4708919 13.1790257,10.8537857 12.9949153,11.2239598 C12.8104808,11.5947862 12.564136,11.959742 12.2552326,12.318501 C11.6371015,13.0356929 10.8883429,13.5917694 10.0089567,13.9867305 C9.12892223,14.3810393 8.22003947,14.5786829 7.28101188,14.5786829 C6.34230843,14.5786829 5.45092912,14.3931067 4.60687395,14.0222803 C3.76314291,13.6521062 3.02929464,13.1521265 2.40532912,12.5249505 C1.7813636,11.896796 1.28510843,11.1584047 0.916563604,10.3094504 C0.548342915,9.46016989 0.363908432,8.56327229 0.363908432,7.61875759 C0.363908432,6.64978204 0.548342915,5.73820794 0.916563604,4.88305685 C1.28510843,4.0282319 1.78395671,3.28396997 2.41440498,2.64994491 C3.04388085,2.01624599 3.78712912,1.51365719 4.64285326,1.1428308 C5.49825326,0.772330556 6.40746016,0.58675429 7.37047395,0.58675429 C8.5587636,0.58675429 9.62550154,0.840820918 10.5706877,1.34928032 C11.5152257,1.85773972 12.3443705,2.5781931 13.0574739,3.51064045 L11.9696671,4.53342986 C11.3991843,3.73241877 10.7366464,3.10752575 9.98205326,2.65907695 C9.22713602,2.21062816 8.35099119,1.98624068 7.35264636,1.98624068 C6.5915705,1.98624068 5.87554981,2.1385502 5.20426016,2.44382153 C4.5329705,2.74844057 3.95049464,3.15840431 3.45715671,3.67240817 C2.96414291,4.18641202 2.57485326,4.78456118 2.28961188,5.46620336 C2.0043705,6.14784553 1.86142567,6.87156035 1.86142567,7.6363694 C1.86142567,8.35421362 1.99788774,9.04172639 2.27146016,9.69956001 C2.54503257,10.3570675 2.93108085,10.9431493 3.4305774,11.4571532 C3.92942567,11.959742 4.51190154,12.3723148 5.17735671,12.6948718 C5.84313602,13.017755 6.5325774,13.1795227 7.24568085,13.1795227 C7.82783257,13.1795227 8.40414981,13.0777656 8.97495671,12.8745775 C9.54543947,12.6713894 10.0591981,12.3811208 10.5168808,12.0044238 C10.9745636,11.6280529 11.3427843,11.1796041 11.6221912,10.6590774 C11.9012739,10.1388768 12.0413015,9.5677976 12.0413015,8.94616603 L8.04759809,8.94616603 L8.04759809,7.54667964 L13.6454602,7.54667964 Z" id="Fill-3"></path>
                            <path d="M17.2644602,7.08039073 L17.7283015,7.08039073 C18.1558395,7.08039073 18.5717084,7.05364687 18.9759084,6.99983302 C19.3797843,6.94601916 19.7428188,6.83252085 20.0637153,6.65901193 C20.3842877,6.48582916 20.6429498,6.24056843 20.8390533,5.9235559 C21.0351567,5.60686952 21.1330464,5.18516457 21.1330464,4.65876722 C21.1330464,4.09714625 21.0380739,3.65456806 20.8481291,3.33168492 C20.657536,3.00880179 20.4047084,2.76647636 20.0902946,2.60470865 C19.7749084,2.44359323 19.4128464,2.33922696 19.0024877,2.29095757 C18.5927774,2.2436666 18.1619981,2.2195319 17.7101498,2.2195319 L17.2644602,2.2195319 L17.2644602,7.08039073 Z M17.2644602,14.3452613 L15.7669429,14.3452613 L15.7669429,0.820045508 L17.7101498,0.820045508 C18.3516188,0.820045508 18.9671567,0.871250207 19.5551429,0.972681172 C20.1437774,1.07443828 20.6662877,1.2626237 21.1239705,1.53788973 C21.5816533,1.81315576 21.9469567,2.1924619 22.2205291,2.6767866 C22.4941015,3.16078516 22.6308877,3.78600432 22.6308877,4.55146565 C22.6308877,5.60393421 22.3304119,6.46462976 21.7304326,7.13453073 C21.1301291,7.80410555 20.3068188,8.18699929 19.2611498,8.28255965 L23.5397705,14.3452613 L21.7035291,14.3452613 L17.6388395,8.40779917 L17.2644602,8.40779917 L17.2644602,14.3452613 Z" id="Fill-5"></path>
                            <path d="M30.3499408,3.69028089 L28.0498581,9.10721622 L32.5962167,9.10721622 L30.3499408,3.69028089 Z M27.4440443,10.5067026 L25.8214098,14.3454243 L24.181596,14.3454243 L30.3852719,0.174442311 L36.4291477,14.3454243 L34.7711822,14.3454243 L33.1842029,10.5067026 L27.4440443,10.5067026 Z" id="Fill-7"></path>
                            <polygon id="Fill-9" points="37.979856 0.245998432 48.4624767 11.296103 48.4624767 0.820012894 49.9599939 0.820012894 49.9599939 14.9554452 39.4773733 3.92327858 39.4773733 14.3452286 37.979856 14.3452286"></polygon>
                            <polygon id="Fill-11" points="52.7947422 14.3454243 54.2922595 14.3454243 54.2922595 0.819882436 52.7947422 0.819882436"></polygon>
                            <polygon id="Fill-13" points="60.5853002 14.3453917 59.0874588 14.3453917 59.0874588 2.21933622 55.8428381 2.21933622 55.8428381 0.819849821 63.8652519 0.819849821 63.8652519 2.21933622 60.5853002 2.21933622"></polygon>
                            <path d="M69.5611333,2.42581835 C68.8895195,2.71869618 68.3070436,3.11952787 67.8137057,3.62766113 C67.3206919,4.13579438 66.9317264,4.73035596 66.646485,5.41199813 C66.3609195,6.09396645 66.2182988,6.81768127 66.2182988,7.5831426 C66.2182988,8.34795164 66.3609195,9.06873116 66.646485,9.74417659 C66.9317264,10.4202743 67.3239333,11.0119006 67.8231057,11.52036 C68.3222781,12.0284932 68.9070229,12.4322602 69.5789608,12.7310087 C70.2502505,13.0300832 70.9665953,13.1794575 71.7273471,13.1794575 C72.4877746,13.1794575 73.2037953,13.0300832 73.8757333,12.7310087 C74.5466988,12.4322602 75.1320919,12.0284932 75.6315884,11.52036 C76.1307608,11.0119006 76.5229677,10.4202743 76.807885,9.74417659 C77.0931264,9.06873116 77.2360712,8.34795164 77.2360712,7.5831426 C77.2360712,6.81768127 77.0931264,6.09396645 76.807885,5.41199813 C76.5229677,4.73035596 76.1333539,4.13579438 75.6403402,3.62766113 C75.1466781,3.11952787 74.5645264,2.71869618 73.8932367,2.42581835 C73.2216229,2.13294052 72.4991195,1.98617546 71.7273471,1.98617546 C70.9546022,1.98617546 70.2324229,2.13294052 69.5611333,2.42581835 M74.4458919,1.13395967 C75.2954574,1.49891545 76.0380574,2.00117811 76.6743402,2.64074763 C77.3099746,3.2806433 77.8120643,4.02523137 78.1809333,4.87418572 C78.5491539,5.7234662 78.7332643,6.63177886 78.7332643,7.60075441 C78.7332643,8.56940381 78.5491539,9.47836876 78.1809333,10.3273231 C77.8120643,11.1762774 77.3099746,11.9146688 76.6743402,12.5428232 C76.0380574,13.1703254 75.2954574,13.6670436 74.4458919,14.0313471 C73.5960022,14.3963029 72.6897126,14.5786177 71.7273471,14.5786177 C70.7646574,14.5786177 69.8580436,14.3963029 69.0084781,14.0313471 C68.1585884,13.6670436 67.4156643,13.1703254 66.7800298,12.5428232 C66.1440712,11.9146688 65.6416574,11.1762774 65.2734367,10.3273231 C64.9048919,9.47836876 64.7207815,8.56940381 64.7207815,7.60075441 C64.7207815,6.63177886 64.9048919,5.7234662 65.2734367,4.87418572 C65.6416574,4.02523137 66.1440712,3.2806433 66.7800298,2.64074763 C67.4156643,2.00117811 68.1585884,1.49891545 69.0084781,1.13395967 C69.8580436,0.76965617 70.7646574,0.586689061 71.7273471,0.586689061 C72.6897126,0.586689061 73.5960022,0.76965617 74.4458919,1.13395967" id="Fill-14"></path>
                            <polygon id="Fill-16" points="0.303878087 19.8165975 0.853940156 19.8165975 2.9154574 22.5699101 2.92615395 22.5699101 2.92615395 19.9209638 3.68917464 19.9209638 3.68917464 23.9387389 3.13878843 23.9387389 1.07759533 21.1854263 1.06689878 21.1854263 1.06689878 23.860138 0.303878087 23.860138"></polygon>
                            <path d="M7.7808974,20.9711493 L7.77052498,20.9711493 L7.33942154,22.402924 L8.26904912,22.402924 L7.7808974,20.9711493 Z M7.12127671,23.0297739 L6.79973188,23.860138 L5.99457326,23.860138 L7.52126291,19.8165975 L8.11313878,19.8165975 L9.59801464,23.860138 L8.78313188,23.860138 L8.48200774,23.0297739 L7.12127671,23.0297739 Z" id="Fill-17"></path>
                            <polygon id="Fill-18" points="12.7657822 23.8602685 12.0024374 23.8602685 12.0024374 20.5900168 11.2131615 20.5900168 11.2131615 19.9210942 13.5553822 19.9210942 13.5553822 20.5900168 12.7657822 20.5900168"></polygon>
                            <path d="M15.8916388,19.9210616 L16.6549836,19.9210616 L16.6549836,22.125799 C16.6549836,22.2477771 16.6601698,22.3772565 16.6705422,22.5152156 C16.6812388,22.6528486 16.7094388,22.7787404 16.7564388,22.8938695 C16.8031146,23.0089985 16.8718319,23.104885 16.9642112,23.1812028 C17.0559422,23.2575207 17.1830043,23.2963319 17.3453974,23.2963319 C17.5081146,23.2963319 17.6355008,23.2575207 17.7272319,23.1812028 C17.8192871,23.104885 17.8883284,23.0089985 17.9350043,22.8938695 C17.9816802,22.7787404 18.0102043,22.6528486 18.0205767,22.5152156 C18.0312733,22.3772565 18.0361353,22.2477771 18.0361353,22.125799 L18.0361353,19.9210616 L18.7998043,19.9210616 L18.7998043,22.2774562 C18.7998043,22.5178248 18.7725767,22.7409077 18.7190939,22.9457265 C18.6656112,23.1515237 18.5803629,23.3299248 18.4643215,23.481582 C18.3489284,23.6332392 18.1988526,23.7516297 18.0157146,23.8370796 C17.8319284,23.9222033 17.6089215,23.9646021 17.3453974,23.9646021 C17.0825215,23.9646021 16.8588664,23.9222033 16.6760526,23.8370796 C16.4925905,23.7516297 16.3425146,23.6332392 16.2264733,23.481582 C16.110756,23.3299248 16.0258319,23.1515237 15.9723491,22.9457265 C15.9185422,22.7409077 15.8916388,22.5178248 15.8916388,22.2774562 L15.8916388,19.9210616 Z" id="Fill-19"></path>
                            <path d="M22.1433195,21.7861846 L22.2418574,21.7861846 C22.3459057,21.7861846 22.4418505,21.7777049 22.5303402,21.7600931 C22.6185057,21.7424813 22.6946781,21.7105191 22.7585333,21.6632281 C22.8227126,21.6162633 22.8719815,21.5536435 22.9066643,21.4753688 C22.9410229,21.3970941 22.9585264,21.2985985 22.9585264,21.180208 C22.9585264,21.0582299 22.9406988,20.9597343 22.9040712,20.8843949 C22.8677677,20.8100339 22.8175264,20.7513279 22.7536712,20.7095814 C22.6894919,20.668161 22.6142919,20.6391341 22.5277471,20.6238053 C22.4412022,20.6081504 22.3475264,20.5999968 22.2467195,20.5999968 L22.1433195,20.5999968 L22.1433195,21.7861846 Z M24.0281815,23.9126473 L23.1040643,23.9126473 L22.1536919,22.323997 L22.1433195,22.323997 L22.1433195,23.9126473 L21.3802988,23.9126473 L21.3802988,19.9728208 L22.4133264,19.9728208 C22.6071608,19.9728208 22.7844643,19.995977 22.945885,20.040985 C23.1069815,20.0863191 23.2440919,20.1567663 23.3585126,20.2526528 C23.4726091,20.3485393 23.5617471,20.4714958 23.6256022,20.6211962 C23.6897815,20.7708966 23.7218712,20.9502761 23.7218712,21.1590086 C23.7218712,21.2842481 23.7043677,21.4081831 23.6703333,21.5301611 C23.6353264,21.6524654 23.5837884,21.7627022 23.5166919,21.8618502 C23.4492712,21.9613243 23.3659677,22.0457957 23.2677539,22.1155907 C23.1685677,22.1853856 23.0538229,22.2300674 22.9222229,22.2509407 L24.0281815,23.9126473 Z" id="Fill-20"></path>
                            <path d="M42.3791208,20.7883453 C42.3065139,20.6872405 42.2225622,20.6079873 42.1275898,20.5505859 C42.0322933,20.4931844 41.9204657,20.4644837 41.7924312,20.4644837 C41.7301967,20.4644837 41.6702312,20.4755726 41.6135071,20.4980766 C41.5561346,20.5212329 41.5058933,20.5512382 41.4624588,20.5900494 C41.4190243,20.6282083 41.3843415,20.6751731 41.3564657,20.7306177 C41.3285898,20.7867146 41.314976,20.8457467 41.314976,20.9083665 C41.314976,21.0202341 41.352576,21.1086193 41.4287484,21.1751528 C41.505245,21.2413601 41.6011898,21.3000661 41.7172312,21.3522493 C41.8329484,21.4050847 41.9577415,21.4592247 42.0909622,21.5146693 C42.2241829,21.5697877 42.3486519,21.6434964 42.4650174,21.7338384 C42.5807346,21.8248328 42.6770036,21.9396357 42.753176,22.0785732 C42.8293484,22.2181631 42.8672726,22.3975426 42.8672726,22.6167118 C42.8672726,22.81566 42.837776,22.9966702 42.7791071,23.1600687 C42.7201139,23.3241194 42.6355139,23.4659923 42.5243346,23.5860135 C42.4134795,23.7060347 42.2786381,23.7993121 42.1194864,23.8655194 C41.9603346,23.9320529 41.7801139,23.9646674 41.5794726,23.9646674 C41.3094657,23.9646674 41.0751139,23.8942201 40.8757691,23.7533257 C40.6770726,23.6121051 40.5094933,23.4268549 40.374976,23.196923 L40.8679898,22.7112937 C40.8958657,22.7879377 40.9321691,22.860668 40.9775484,22.9301367 C41.0219553,22.9999317 41.0757622,23.0612469 41.1383208,23.1131039 C41.2005553,23.165287 41.267976,23.2073596 41.3409071,23.2386695 C41.4135139,23.2699794 41.4913071,23.2856343 41.5746105,23.2856343 C41.6540243,23.2856343 41.7240381,23.2699794 41.7846519,23.2386695 C41.8452657,23.2073596 41.8981002,23.165287 41.9428312,23.1131039 C41.9882105,23.0612469 42.0219208,23.0009101 42.0446105,22.9327459 C42.0666519,22.8649078 42.0776726,22.7928299 42.0776726,22.7161859 C42.0776726,22.6154072 42.057576,22.5299573 42.0157622,22.4601624 C41.9739484,22.3903675 41.9204657,22.3319876 41.8546657,22.2853489 C41.7891898,22.2380579 41.7152864,22.1985945 41.6339277,22.1676107 C41.5525691,22.136627 41.4738036,22.104991 41.3979553,22.0733549 C41.2731622,22.0211718 41.1567967,21.9644226 41.0498312,21.9037598 C40.9422174,21.8427707 40.8498381,21.7706928 40.7723691,21.6868736 C40.6942519,21.6033806 40.6336381,21.5058634 40.5902036,21.3943219 C40.5470933,21.2831066 40.525376,21.1503658 40.525376,20.9977301 C40.525376,20.8336794 40.5542243,20.6803914 40.6112726,20.537214 C40.6683208,20.3950149 40.7480588,20.2691231 40.8498381,20.1611693 C40.9519415,20.0535415 41.0725208,19.9690701 41.2109277,19.9080811 C41.3490105,19.847092 41.5016795,19.8167606 41.6679622,19.8167606 C41.7541829,19.8167606 41.8478588,19.8268711 41.9483415,19.8477443 C42.048176,19.8689437 42.1473622,19.8982967 42.2442795,19.9367818 C42.3411967,19.9752668 42.4326036,20.0212532 42.5194726,20.0750671 C42.6060174,20.1292071 42.6786243,20.1888915 42.7372933,20.255425 L42.3791208,20.7883453 Z" id="Fill-21"></path>
                            <polygon id="Fill-22" points="46.616025 23.8602685 45.8530043 23.8602685 45.8530043 20.5900168 45.0640526 20.5900168 45.0640526 19.9210942 47.405625 19.9210942 47.405625 20.5900168 46.616025 20.5900168"></polygon>
                            <polygon id="Fill-23" points="61.9555933 20.5899189 61.9555933 21.4571374 63.1701381 21.4571374 63.1701381 22.1257338 61.9555933 22.1257338 61.9555933 23.1915742 63.2171381 23.1915742 63.2171381 23.8601706 61.1922484 23.8601706 61.1922484 19.9209964 63.2171381 19.9209964 63.2171381 20.5899189"></polygon>
                            <polygon id="Fill-24" points="55.2208822 19.8165975 55.7709443 19.8165975 57.8327857 22.5699101 57.8431581 22.5699101 57.8431581 19.9209638 58.6061788 19.9209638 58.6061788 23.9387389 58.0557926 23.9387389 55.9945995 21.1854263 55.9839029 21.1854263 55.9839029 23.860138 55.2208822 23.860138"></polygon>
                            <path d="M27.8055877,21.0233977 L27.7952153,21.0233977 L27.364436,22.4551724 L28.2940636,22.4551724 L27.8055877,21.0233977 Z M27.1462912,23.0820223 L26.8247464,23.9123864 L26.0192636,23.9123864 L27.5462774,19.8688459 L28.1381533,19.8688459 L29.6230291,23.9123864 L28.8078222,23.9123864 L28.5066981,23.0820223 L27.1462912,23.0820223 Z" id="Fill-25"></path>
                            <polygon id="Fill-26" points="31.8462264 19.8417433 32.6189712 19.8417433 32.6189712 23.1847252 33.7447022 23.1847252 33.7447022 23.9257257 31.8462264 23.9257257"></polygon>
                            <path d="M51.1976498,20.5768405 C50.8624912,20.5768405 50.5804912,20.699797 50.3519739,20.9460362 C50.1237808,21.1919492 50.0093602,21.5047219 50.0093602,21.8843542 C50.0093602,22.3073637 50.1529533,22.6416619 50.4407877,22.8875749 C50.6641188,23.0800002 50.920836,23.1762128 51.2099671,23.1762128 C51.5373464,23.1762128 51.8157808,23.0516256 52.0459188,22.8017989 C52.2760567,22.5526244 52.3911257,22.2447439 52.3911257,21.8791358 C52.3911257,21.5151585 52.2750843,21.207278 52.0433257,20.9548421 C51.8118912,20.7030585 51.5295671,20.5768405 51.1976498,20.5768405 M51.205105,19.8645408 C51.7175671,19.8645408 52.1587188,20.0605537 52.5275877,20.4519272 C52.8964567,20.8436268 53.0808912,21.3211025 53.0808912,21.8843542 C53.0808912,22.4423875 52.8987257,22.9146449 52.5347188,23.3011262 C52.171036,23.6872814 51.7295602,23.8806851 51.2099671,23.8806851 C50.6660636,23.8806851 50.2142153,23.6820631 49.8544222,23.2854713 C49.4946291,22.8885533 49.3144084,22.4172744 49.3144084,21.8713084 C49.3144084,21.5057003 49.3983602,21.1694452 49.5659395,20.8628693 C49.7335188,20.5562934 49.9639808,20.3129896 50.2576498,20.13361 C50.5506705,19.9542305 50.866705,19.8645408 51.205105,19.8645408" id="Fill-27"></path>
                        </g>
                    </g>
                </g>
            </g>
        </g>
    </g>
</svg>