<?xml version="1.0" encoding="UTF-8"?>
<svg width="94px" height="25px" viewBox="0 0 94 25" version="1.1" xmlns="http://www.w3.org/2000/svg" xmlns:xlink="http://www.w3.org/1999/xlink">
    <!-- Generator: Sketch 53.2 (72643) - https://sketchapp.com -->
    <title>Fill 15</title>
    <desc>Created with Sketch.</desc>
    <g id="1920" stroke="none" stroke-width="1" fill="none" fill-rule="evenodd">
        <g id="1.1-1920" transform="translate(-30.000000, -30.000000)" fill="#1C1C1B">
            <g id="Navigation" transform="translate(30.000000, 30.000000)">
                <g id="Icon">
                    <path d="M92.4234295,14.5152632 L78.5971248,22.8102644 L78.5971248,19.7248562 L92.4234295,11.4292899 L92.4234295,14.5152632 Z M77.8085587,18.3505498 L63.9440614,10.0323798 L77.807997,1.7170353 L91.6724944,10.0329449 L77.8085587,18.3505498 Z M77.0205542,22.8108294 L63.1936879,14.5152632 L63.1936879,11.4304201 L77.0205542,19.7254213 L77.0205542,22.8108294 Z M61.6143091,14.5152632 L47.7880044,22.8108294 L47.7880044,19.7248562 L61.6143091,11.429855 L61.6143091,14.5152632 Z M47,18.3511149 L33.134941,10.0329449 L47,1.7170353 L60.865059,10.0329449 L47,18.3511149 Z M46.2119956,22.8108294 L32.3851292,14.5152632 L32.3851292,11.429855 L46.2119956,19.7248562 L46.2119956,22.8108294 Z M30.8057504,14.5152632 L16.9794458,22.8108294 L16.9794458,19.7248562 L30.8057504,11.4304201 L30.8057504,14.5152632 Z M16.1908797,18.3511149 L2.32750565,10.0329449 L16.1908797,1.7170353 L30.0559386,10.0323798 L16.1908797,18.3511149 Z M15.4028752,22.8108294 L1.57657055,14.5152632 L1.57657055,11.4292899 L15.4028752,19.7248562 L15.4028752,22.8108294 Z M93.9724788,9.82668596 C93.9663006,9.80577751 93.9556291,9.78712944 93.9477659,9.76678609 C93.9326012,9.72270883 93.9168748,9.67806648 93.8938469,9.63794487 C93.8809288,9.61477605 93.8623941,9.59556289 93.8466677,9.57408935 C93.8225165,9.54018377 93.8006118,9.50571309 93.770844,9.47576316 C93.7478161,9.45202925 93.7191716,9.43451136 93.6922121,9.41360292 C93.6669375,9.39325957 93.6439096,9.36952566 93.6152651,9.35200778 L93.6029087,9.34466157 L93.6012237,9.34353138 L93.6001004,9.34296629 L78.2112666,0.112736068 C77.9624526,-0.0375786892 77.6529798,-0.0375786892 77.4041658,0.112736068 L62.4039985,9.11014794 L47.4038312,0.112736068 C47.1544556,-0.0375786892 46.8455444,-0.0375786892 46.5961688,0.112736068 L31.5965631,9.11014794 L16.5947109,0.112170975 C16.3458969,-0.0370135961 16.036424,-0.0375786892 15.7876101,0.112736068 L0.399899619,9.34296629 C0.399899619,9.34296629 0.399337962,9.34353138 0.398776305,9.34353138 L0.397091335,9.34466157 L0.384734886,9.35200778 C0.356090391,9.36952566 0.333062463,9.39325957 0.307226252,9.41360292 C0.280828384,9.43451136 0.252183889,9.45202925 0.229155961,9.47576316 C0.199388153,9.50571309 0.177483539,9.54018377 0.153332298,9.57408935 C0.137605908,9.59556289 0.119071235,9.61477605 0.106153129,9.63794487 C0.0825635449,9.67806648 0.0673988122,9.72270883 0.0522340794,9.76678609 C0.0443708847,9.78712944 0.0331377493,9.80577751 0.0275211816,9.82668596 C0.00954816506,9.89336694 0,9.96230829 0,10.0329449 L0,14.9656423 C0,15.2447983 0.14603076,15.5036109 0.384734886,15.6465795 L15.7876101,24.8875465 C15.7898567,24.8886767 15.7921033,24.8892418 15.7932267,24.8903719 C15.7965966,24.8920672 15.7982816,24.8948927 15.8016515,24.896588 C15.8426525,24.9197568 15.8864617,24.9338841 15.9302709,24.9491416 C15.9499289,24.9564878 15.9673403,24.9672246 15.9869982,24.9728755 C16.0538354,24.9903934 16.1223575,25 16.1908797,25 C16.2599634,25 16.3284856,24.9903934 16.3953227,24.9728755 C16.4149807,24.9672246 16.4323921,24.9564878 16.45205,24.9491416 C16.4952976,24.9338841 16.5396685,24.9197568 16.5806694,24.896588 C16.5840394,24.8948927 16.5857244,24.8920672 16.5885326,24.8903719 C16.5902176,24.8892418 16.5924642,24.8886767 16.5947109,24.8875465 L31.5960015,15.8890044 L46.5961688,24.8875465 C46.5984154,24.8886767 46.600662,24.8892418 46.6029087,24.8903719 C46.6051553,24.8920672 46.6074019,24.8948927 46.6107719,24.896588 C46.6512111,24.9197568 46.695582,24.9338841 46.7388296,24.9491416 C46.7584876,24.9564878 46.7764606,24.9672246 46.7961186,24.9728755 C46.8629557,24.9903934 46.9314779,25 47,25 C47.0685221,25 47.1370443,24.9903934 47.2038814,24.9728755 C47.2235394,24.9672246 47.2415124,24.9564878 47.2611704,24.9491416 C47.304418,24.9338841 47.3487889,24.9197568 47.3892281,24.896588 C47.3925981,24.8948927 47.3948447,24.8920672 47.3970913,24.8903719 C47.399338,24.8892418 47.4015846,24.8886767 47.4038312,24.8875465 L62.4051218,15.8884393 L77.4052891,24.8875465 C77.4075358,24.8886767 77.4097824,24.8892418 77.4114674,24.8903719 C77.413714,24.8920672 77.4159606,24.8948927 77.4193306,24.896588 C77.4597698,24.9197568 77.5047024,24.9338841 77.54795,24.9491416 C77.5676079,24.9564878 77.5850193,24.9672246 77.6046773,24.9728755 C77.6715144,24.9903934 77.7394749,25 77.8085587,25 C77.8776425,25 77.9461646,24.9903934 78.0130018,24.9728755 C78.0326597,24.9672246 78.0500711,24.9564878 78.0697291,24.9491416 C78.1129767,24.9338841 78.1579092,24.9197568 78.1983485,24.896588 C78.2017184,24.8948927 78.2039651,24.8920672 78.2062117,24.8903719 C78.2078967,24.8892418 78.2101433,24.8886767 78.2123899,24.8875465 L93.6152651,15.6465795 C93.8539692,15.5036109 94,15.2447983 94,14.9656423 L94,10.0329449 C94,9.96230829 93.9904518,9.89336694 93.9724788,9.82668596 L93.9724788,9.82668596 Z" id="Fill-15"></path>
                </g>
            </g>
        </g>
    </g>
</svg>