<?xml version="1.0" encoding="UTF-8"?>
<svg width="94px" height="64px" viewBox="0 0 94 64" version="1.1" xmlns="http://www.w3.org/2000/svg" xmlns:xlink="http://www.w3.org/1999/xlink">
    <title>Artboard Copy 2</title>
    <g id="Artboard-Copy-2" stroke="none" stroke-width="1" fill="none" fill-rule="evenodd">
        <g id="escrtd" transform="translate(3.456000, 1.890000)" fill="#D90000" fill-rule="nonzero">
            <path d="M0,12.506 C0,10.4606667 0.563333333,8.86166667 1.69,7.709 C2.81666667,6.55633333 4.29,5.98 6.11,5.98 C7.91266667,5.98 9.33833333,6.53033333 10.387,7.631 C11.4356667,8.73166667 11.96,10.27 11.96,12.246 L11.96,12.974 L1.716,12.974 C1.80266667,14.4473333 2.21433333,15.639 2.951,16.549 C3.68766667,17.459 4.836,17.914 6.396,17.914 C8.71866667,17.914 10.1486667,16.8133333 10.686,14.612 L12.402,14.612 C12.246,15.184 12.0423333,15.7213333 11.791,16.224 C11.5396667,16.7266667 11.1886667,17.2293333 10.738,17.732 C10.2873333,18.2346667 9.68933333,18.6333333 8.944,18.928 C8.19866667,19.2226667 7.34933333,19.37 6.396,19.37 C4.24666667,19.37 2.64333333,18.7286667 1.586,17.446 C0.528666667,16.1633333 0,14.5166667 0,12.506 Z M1.716,11.518 L10.244,11.518 C10.244,10.3393333 9.87566667,9.36433333 9.139,8.593 C8.40233333,7.82166667 7.39266667,7.436 6.11,7.436 C4.82733333,7.436 3.77433333,7.826 2.951,8.606 C2.12766667,9.386 1.716,10.3566667 1.716,11.518 Z" id="Shape"></path>
            <path d="M25.3565,15.808 C25.3565,16.8653333 24.9795,17.7233333 24.2255,18.382 C23.4715,19.0406667 22.2191667,19.37 20.4685,19.37 C16.6725,19.37 14.7745,17.6973333 14.7745,14.352 L16.4905,14.352 C16.4905,16.7266667 17.8165,17.914 20.4685,17.914 C21.5778333,17.914 22.3838333,17.7623333 22.8865,17.459 C23.3891667,17.1556667 23.6405,16.6486667 23.6405,15.938 C23.6405,15.7126667 23.6058333,15.5003333 23.5365,15.301 C23.4671667,15.1016667 23.3891667,14.9283333 23.3025,14.781 C23.2158333,14.6336667 23.0815,14.495 22.8995,14.365 C22.7175,14.235 22.5571667,14.1266667 22.4185,14.04 C22.2798333,13.9533333 22.0675,13.858 21.7815,13.754 C21.4955,13.65 21.2701667,13.5763333 21.1055,13.533 C20.9408333,13.4896667 20.6895,13.416 20.3515,13.312 C20.0135,13.208 19.7578333,13.13 19.5845,13.078 C18.1458333,12.6446667 17.0841667,12.1636667 16.3995,11.635 C15.7148333,11.1063333 15.3725,10.3306667 15.3725,9.308 C15.3725,8.30266667 15.7711667,7.49666667 16.5685,6.89 C17.3658333,6.28333333 18.4665,5.98 19.8705,5.98 C20.8065,5.98 21.6168333,6.10133333 22.3015,6.344 C22.9861667,6.58666667 23.5105,6.92033333 23.8745,7.345 C24.2385,7.76966667 24.5028333,8.22033333 24.6675,8.697 C24.8321667,9.17366667 24.9145,9.68066667 24.9145,10.218 L23.1985,10.218 C23.1985,8.36333333 22.0891667,7.436 19.8705,7.436 C18.0158333,7.436 17.0885,8.02533333 17.0885,9.204 C17.0885,9.84533333 17.2878333,10.3176667 17.6865,10.621 C18.0851667,10.9243333 18.8478333,11.258 19.9745,11.622 C20.1305,11.674 20.4468333,11.7736667 20.9235,11.921 C21.4001667,12.0683333 21.7295,12.1723333 21.9115,12.233 C22.0935,12.2936667 22.3838333,12.4063333 22.7825,12.571 C23.1811667,12.7356667 23.4671667,12.8743333 23.6405,12.987 C23.8138333,13.0996667 24.0348333,13.26 24.3035,13.468 C24.5721667,13.676 24.7671667,13.8883333 24.8885,14.105 C25.0098333,14.3216667 25.1181667,14.573 25.2135,14.859 C25.3088333,15.145 25.3565,15.4613333 25.3565,15.808 Z" id="Path"></path>
            <path d="M29.445,17.446 C28.301,16.146 27.729,14.5513333 27.729,12.662 C27.729,10.7726667 28.3053333,9.18666667 29.458,7.904 C30.6106667,6.62133333 32.1923333,5.98 34.203,5.98 C35.5723333,5.98 36.842,6.396 38.012,7.228 C39.182,8.06 39.8536667,9.32533333 40.027,11.024 L38.285,11.024 C37.921,8.632 36.5603333,7.436 34.203,7.436 C32.643,7.436 31.46,7.93433333 30.654,8.931 C29.848,9.92766667 29.445,11.1713333 29.445,12.662 C29.445,14.17 29.848,15.4223333 30.654,16.419 C31.46,17.4156667 32.643,17.914 34.203,17.914 C36.5603333,17.914 37.921,16.718 38.285,14.326 L40.027,14.326 C39.8536667,16.0246667 39.182,17.29 38.012,18.122 C36.842,18.954 35.5723333,19.37 34.203,19.37 C32.1923333,19.37 30.6063333,18.7286667 29.445,17.446 Z" id="Path"></path>
            <path d="M43.1795,19.11 L43.1795,7.67 C43.1795,6.49133333 43.7428333,5.928 44.8695,5.98 L51.7595,6.24 L51.7595,7.696 L44.8955,7.436 L44.8955,19.11 L43.1795,19.11 Z" id="Path"></path>
            <path d="M57.85,17.94 L62.348,17.654 L62.348,19.11 L57.824,19.37 C57.252,19.4046667 56.8273333,19.279 56.55,18.993 C56.2726667,18.707 56.134,18.2693333 56.134,17.68 L56.134,7.696 L53.352,7.696 L53.352,6.24 L56.134,6.24 L56.134,2.73 L57.85,2.21 L57.85,6.24 L61.828,6.24 L61.828,7.696 L57.85,7.696 L57.85,17.94 Z" id="Path"></path>
            <path d="M77.6685,19.11 L75.9525,19.11 L75.9525,17.004 L76.2125,15.704 L75.6925,15.704 C75.4151667,16.796 74.8171667,17.68 73.8985,18.356 C72.9798333,19.032 71.8271667,19.37 70.4405,19.37 C68.5858333,19.37 67.0821667,18.7416667 65.9295,17.485 C64.7768333,16.2283333 64.2005,14.6206667 64.2005,12.662 C64.2005,10.7206667 64.7768333,9.12166667 65.9295,7.865 C67.0821667,6.60833333 68.5858333,5.98 70.4405,5.98 C71.8271667,5.98 72.9798333,6.318 73.8985,6.994 C74.8171667,7.67 75.4151667,8.554 75.6925,9.646 L76.2125,9.646 L75.9525,8.346 L75.9525,0 L77.6685,0 L77.6685,19.11 Z M75.9525,12.662 C75.9525,10.9286667 75.4671667,9.62433333 74.4965,8.749 C73.5258333,7.87366667 72.2951667,7.436 70.8045,7.436 C69.3485,7.436 68.1698333,7.86933333 67.2685,8.736 C66.3671667,9.60266667 65.9165,10.9113333 65.9165,12.662 C65.9165,14.43 66.3628333,15.7473333 67.2555,16.614 C68.1481667,17.4806667 69.3311667,17.914 70.8045,17.914 C72.2951667,17.914 73.5258333,17.4763333 74.4965,16.601 C75.4671667,15.7256667 75.9525,14.4126667 75.9525,12.662 Z" id="Shape"></path>
        </g>
        <g id="®" transform="translate(83.376000, 2.080000)" fill="#D90000" fill-rule="nonzero">
            <path d="M6.384,6.352 C5.69066667,7.06666667 4.8,7.424 3.712,7.424 C2.624,7.424 1.73333333,7.06666667 1.04,6.352 C0.346666667,5.63733333 0,4.75733333 0,3.712 C0,2.66666667 0.346666667,1.78666667 1.04,1.072 C1.73333333,0.357333333 2.624,0 3.712,0 C4.8,0 5.69066667,0.357333333 6.384,1.072 C7.07733333,1.78666667 7.424,2.66666667 7.424,3.712 C7.424,4.75733333 7.07733333,5.63733333 6.384,6.352 Z M1.568,5.824 C2.13333333,6.4 2.848,6.688 3.712,6.688 C4.576,6.688 5.288,6.39733333 5.848,5.816 C6.408,5.23466667 6.688,4.53333333 6.688,3.712 C6.688,2.89066667 6.408,2.18933333 5.848,1.608 C5.288,1.02666667 4.576,0.736 3.712,0.736 C2.848,0.736 2.136,1.02666667 1.576,1.608 C1.016,2.18933333 0.736,2.89066667 0.736,3.712 C0.736,4.53333333 1.01333333,5.23733333 1.568,5.824 Z M2.128,5.536 L2.128,1.84 L3.632,1.84 C4.848,1.84 5.456,2.19733333 5.456,2.912 C5.456,3.18933333 5.37333333,3.38666667 5.208,3.504 C5.04266667,3.62133333 4.77866667,3.696 4.416,3.728 L4.416,4.048 L5.056,4.048 C5.32266667,4.048 5.456,4.18133333 5.456,4.448 L5.456,5.536 L4.72,5.536 L4.72,4.288 L2.864,4.288 L2.864,5.536 L2.128,5.536 Z M2.864,3.552 L3.632,3.552 C3.90933333,3.552 4.10933333,3.54666667 4.232,3.536 C4.35466667,3.52533333 4.46666667,3.48266667 4.568,3.408 C4.66933333,3.33333333 4.72,3.216 4.72,3.056 C4.72,2.90666667 4.66933333,2.79466667 4.568,2.72 C4.46666667,2.64533333 4.35466667,2.60266667 4.232,2.592 C4.10933333,2.58133333 3.90933333,2.576 3.632,2.576 L2.864,2.576 L2.864,3.552 Z" id="Shape"></path>
        </g>
        <line x1="4.31722141" y1="35" x2="19.5" y2="34.5" id="Path" stroke="#D90000" fill="#D90000"></line>
        <g id="good-times.-all-the" transform="translate(4.560000, 36.650000)" fill="#D90000" fill-rule="nonzero">
            <path d="M5.25,2.4 L5.69,2.4 L5.69,2.96 L5.25,2.96 C4.99,2.96 4.76333333,3.03333333 4.57,3.18 C4.82333333,3.5 4.95,3.88 4.95,4.32 C4.95,4.85333333 4.755,5.305 4.365,5.675 C3.975,6.045 3.38666667,6.37666667 2.6,6.67 C3,6.61 3.37,6.585 3.71,6.595 C4.05,6.605 4.33166667,6.70166667 4.555,6.885 C4.77833333,7.06833333 4.89,7.33666667 4.89,7.69 C4.89,7.95 4.83333333,8.16666667 4.72,8.34 C4.60666667,8.51333333 4.44833333,8.65333333 4.245,8.76 C4.04166667,8.86666667 3.74333333,8.94833333 3.35,9.005 C2.95666667,9.06166667 2.53666667,9.1 2.09,9.12 C1.64333333,9.14 1.06666667,9.15 0.36,9.15 L0.36,8.59 C1.86,8.59 2.88,8.53666667 3.42,8.43 C3.96,8.32333333 4.23,8.07666667 4.23,7.69 C4.23,7.50333333 4.17333333,7.35333333 4.06,7.24 C3.94666667,7.12666667 3.79166667,7.055 3.595,7.025 C3.39833333,6.995 3.185,6.98333333 2.955,6.99 C2.725,6.99666667 2.47333333,7.03 2.2,7.09 C1.92666667,7.15 1.67833333,7.21 1.455,7.27 C1.23166667,7.33 1.01,7.39666667 0.79,7.47 L0.62,6.97 C0.866666667,6.89 1.235,6.76833333 1.725,6.605 C2.215,6.44166667 2.58333333,6.32 2.83,6.24 L2.83,6.04 C2.02333333,6.22666667 1.35,6.17 0.81,5.87 C0.27,5.57 0,5.05333333 0,4.32 C0,3.66 0.23,3.15833333 0.69,2.815 C1.15,2.47166667 1.74666667,2.3 2.48,2.3 C3.11333333,2.3 3.65666667,2.45333333 4.11,2.76 C4.40333333,2.6 4.61166667,2.5 4.735,2.46 C4.85833333,2.42 5.03,2.4 5.25,2.4 Z M2.48,5.79 C3.68666667,5.79 4.29,5.3 4.29,4.32 C4.29,3.34666667 3.68666667,2.86 2.48,2.86 C1.26666667,2.86 0.66,3.34666667 0.66,4.32 C0.66,5.3 1.26666667,5.79 2.48,5.79 Z" id="Shape"></path>
            <path d="M6.3025,4.87 C6.3025,4.15666667 6.53916667,3.55 7.0125,3.05 C7.48583333,2.55 8.10916667,2.3 8.8825,2.3 C9.64916667,2.3 10.2691667,2.55 10.7425,3.05 C11.2158333,3.55 11.4525,4.15666667 11.4525,4.87 C11.4525,5.59 11.2158333,6.2 10.7425,6.7 C10.2691667,7.2 9.64916667,7.45 8.8825,7.45 C8.10916667,7.45 7.48583333,7.2 7.0125,6.7 C6.53916667,6.2 6.3025,5.59 6.3025,4.87 Z M6.9625,4.87 C6.9625,5.44333333 7.13083333,5.92333333 7.4675,6.31 C7.80416667,6.69666667 8.27583333,6.89 8.8825,6.89 C9.4825,6.89 9.95083333,6.695 10.2875,6.305 C10.6241667,5.915 10.7925,5.43666667 10.7925,4.87 C10.7925,4.30333333 10.6241667,3.82666667 10.2875,3.44 C9.95083333,3.05333333 9.4825,2.86 8.8825,2.86 C8.2825,2.86 7.8125,3.05333333 7.4725,3.44 C7.1325,3.82666667 6.9625,4.30333333 6.9625,4.87 Z" id="Shape"></path>
            <path d="M12.465,4.87 C12.465,4.15666667 12.7016667,3.55 13.175,3.05 C13.6483333,2.55 14.2716667,2.3 15.045,2.3 C15.8116667,2.3 16.4316667,2.55 16.905,3.05 C17.3783333,3.55 17.615,4.15666667 17.615,4.87 C17.615,5.59 17.3783333,6.2 16.905,6.7 C16.4316667,7.2 15.8116667,7.45 15.045,7.45 C14.2716667,7.45 13.6483333,7.2 13.175,6.7 C12.7016667,6.2 12.465,5.59 12.465,4.87 Z M13.125,4.87 C13.125,5.44333333 13.2933333,5.92333333 13.63,6.31 C13.9666667,6.69666667 14.4383333,6.89 15.045,6.89 C15.645,6.89 16.1133333,6.695 16.45,6.305 C16.7866667,5.915 16.955,5.43666667 16.955,4.87 C16.955,4.30333333 16.7866667,3.82666667 16.45,3.44 C16.1133333,3.05333333 15.645,2.86 15.045,2.86 C14.445,2.86 13.975,3.05333333 13.635,3.44 C13.295,3.82666667 13.125,4.30333333 13.125,4.87 Z" id="Shape"></path>
            <path d="M23.8075,7.35 L23.1475,7.35 L23.1475,6.54 L23.2475,6.04 L23.0475,6.04 C22.9408333,6.46 22.7108333,6.8 22.3575,7.06 C22.0041667,7.32 21.5608333,7.45 21.0275,7.45 C20.3141667,7.45 19.7358333,7.20833333 19.2925,6.725 C18.8491667,6.24166667 18.6275,5.62333333 18.6275,4.87 C18.6275,4.12333333 18.8491667,3.50833333 19.2925,3.025 C19.7358333,2.54166667 20.3141667,2.3 21.0275,2.3 C21.5608333,2.3 22.0041667,2.43 22.3575,2.69 C22.7108333,2.95 22.9408333,3.29 23.0475,3.71 L23.2475,3.71 L23.1475,3.21 L23.1475,0 L23.8075,0 L23.8075,7.35 Z M23.1475,4.87 C23.1475,4.20333333 22.9608333,3.70166667 22.5875,3.365 C22.2141667,3.02833333 21.7408333,2.86 21.1675,2.86 C20.6075,2.86 20.1541667,3.02666667 19.8075,3.36 C19.4608333,3.69333333 19.2875,4.19666667 19.2875,4.87 C19.2875,5.55 19.4591667,6.05666667 19.8025,6.39 C20.1458333,6.72333333 20.6008333,6.89 21.1675,6.89 C21.7408333,6.89 22.2141667,6.72166667 22.5875,6.385 C22.9608333,6.04833333 23.1475,5.54333333 23.1475,4.87 Z" id="Shape"></path>
            <path d="M29.9625,6.9 L31.6925,6.79 L31.6925,7.35 L29.9525,7.45 C29.7325,7.46333333 29.5691667,7.415 29.4625,7.305 C29.3558333,7.195 29.3025,7.02666667 29.3025,6.8 L29.3025,2.96 L28.2325,2.96 L28.2325,2.4 L29.3025,2.4 L29.3025,1.05 L29.9625,0.85 L29.9625,2.4 L31.4925,2.4 L31.4925,2.96 L29.9625,2.96 L29.9625,6.9 Z" id="Path"></path>
            <path d="M34.655,1.35 C34.5216667,1.48333333 34.3616667,1.55 34.175,1.55 C33.9883333,1.55 33.83,1.48333333 33.7,1.35 C33.57,1.21666667 33.505,1.05666667 33.505,0.87 C33.505,0.69 33.57,0.533333333 33.7,0.4 C33.83,0.266666667 33.9883333,0.2 34.175,0.2 C34.3616667,0.2 34.5216667,0.266666667 34.655,0.4 C34.7883333,0.533333333 34.855,0.69 34.855,0.87 C34.855,1.05666667 34.7883333,1.21666667 34.655,1.35 Z M32.605,7.35 L32.605,6.79 L33.995,6.79 L33.995,2.86 L33.005,2.96 L33.005,2.4 L34.005,2.3 C34.4116667,2.26666667 34.615,2.45 34.615,2.85 L34.615,6.79 L36.005,6.79 L36.005,7.35 L32.605,7.35 Z" id="Shape"></path>
            <path d="M43.1075,2.3 C43.5875,2.3 43.9591667,2.46666667 44.2225,2.8 C44.4858333,3.13333333 44.6175,3.57333333 44.6175,4.12 L44.6175,7.35 L43.9575,7.35 L43.9575,4.33 C43.9575,3.82333333 43.8791667,3.45166667 43.7225,3.215 C43.5658333,2.97833333 43.2841667,2.86 42.8775,2.86 C42.3708333,2.86 41.9641667,3.065 41.6575,3.475 C41.3508333,3.885 41.1975,4.42 41.1975,5.08 L41.1975,7.35 L40.5375,7.35 L40.5375,4.33 C40.5375,3.82333333 40.4591667,3.45166667 40.3025,3.215 C40.1458333,2.97833333 39.8641667,2.86 39.4575,2.86 C38.9508333,2.86 38.5441667,3.065 38.2375,3.475 C37.9308333,3.885 37.7775,4.42 37.7775,5.08 L37.7775,7.35 L37.1175,7.35 L37.1175,2.4 L37.7775,2.4 L37.7775,3.31 L37.6775,3.81 L37.8775,3.81 C38.1041667,2.80333333 38.7075,2.3 39.6875,2.3 C40.1208333,2.3 40.4658333,2.43666667 40.7225,2.71 C40.9791667,2.98333333 41.1308333,3.35 41.1775,3.81 L41.2975,3.81 C41.5241667,2.80333333 42.1275,2.3 43.1075,2.3 Z" id="Path"></path>
            <path d="M45.83,4.81 C45.83,4.02333333 46.0466667,3.40833333 46.48,2.965 C46.9133333,2.52166667 47.48,2.3 48.18,2.3 C48.8733333,2.3 49.4216667,2.51166667 49.825,2.935 C50.2283333,3.35833333 50.43,3.95 50.43,4.71 L50.43,4.99 L46.49,4.99 C46.5233333,5.55666667 46.6816667,6.015 46.965,6.365 C47.2483333,6.715 47.69,6.89 48.29,6.89 C49.1833333,6.89 49.7333333,6.46666667 49.94,5.62 L50.6,5.62 C50.54,5.84 50.4616667,6.04666667 50.365,6.24 C50.2683333,6.43333333 50.1333333,6.62666667 49.96,6.82 C49.7866667,7.01333333 49.5566667,7.16666667 49.27,7.28 C48.9833333,7.39333333 48.6566667,7.45 48.29,7.45 C47.4633333,7.45 46.8466667,7.20333333 46.44,6.71 C46.0333333,6.21666667 45.83,5.58333333 45.83,4.81 Z M46.49,4.43 L49.77,4.43 C49.77,3.97666667 49.6283333,3.60166667 49.345,3.305 C49.0616667,3.00833333 48.6733333,2.86 48.18,2.86 C47.6866667,2.86 47.2816667,3.01 46.965,3.31 C46.6483333,3.61 46.49,3.98333333 46.49,4.43 Z" id="Shape"></path>
            <path d="M55.5825,6.08 C55.5825,6.48666667 55.4375,6.81666667 55.1475,7.07 C54.8575,7.32333333 54.3758333,7.45 53.7025,7.45 C52.2425,7.45 51.5125,6.80666667 51.5125,5.52 L52.1725,5.52 C52.1725,6.43333333 52.6825,6.89 53.7025,6.89 C54.1291667,6.89 54.4391667,6.83166667 54.6325,6.715 C54.8258333,6.59833333 54.9225,6.40333333 54.9225,6.13 C54.9225,6.04333333 54.9091667,5.96166667 54.8825,5.885 C54.8558333,5.80833333 54.8258333,5.74166667 54.7925,5.685 C54.7591667,5.62833333 54.7075,5.575 54.6375,5.525 C54.5675,5.475 54.5058333,5.43333333 54.4525,5.4 C54.3991667,5.36666667 54.3175,5.33 54.2075,5.29 C54.0975,5.25 54.0108333,5.22166667 53.9475,5.205 C53.8841667,5.18833333 53.7875,5.16 53.6575,5.12 C53.5275,5.08 53.4291667,5.05 53.3625,5.03 C52.8091667,4.86333333 52.4008333,4.67833333 52.1375,4.475 C51.8741667,4.27166667 51.7425,3.97333333 51.7425,3.58 C51.7425,3.19333333 51.8958333,2.88333333 52.2025,2.65 C52.5091667,2.41666667 52.9325,2.3 53.4725,2.3 C53.8325,2.3 54.1441667,2.34666667 54.4075,2.44 C54.6708333,2.53333333 54.8725,2.66166667 55.0125,2.825 C55.1525,2.98833333 55.2541667,3.16166667 55.3175,3.345 C55.3808333,3.52833333 55.4125,3.72333333 55.4125,3.93 L54.7525,3.93 C54.7525,3.21666667 54.3258333,2.86 53.4725,2.86 C52.7591667,2.86 52.4025,3.08666667 52.4025,3.54 C52.4025,3.78666667 52.4791667,3.96833333 52.6325,4.085 C52.7858333,4.20166667 53.0791667,4.33 53.5125,4.47 C53.5725,4.49 53.6941667,4.52833333 53.8775,4.585 C54.0608333,4.64166667 54.1875,4.68166667 54.2575,4.705 C54.3275,4.72833333 54.4391667,4.77166667 54.5925,4.835 C54.7458333,4.89833333 54.8558333,4.95166667 54.9225,4.995 C54.9891667,5.03833333 55.0741667,5.1 55.1775,5.18 C55.2808333,5.26 55.3558333,5.34166667 55.4025,5.425 C55.4491667,5.50833333 55.4908333,5.605 55.5275,5.715 C55.5641667,5.825 55.5825,5.94666667 55.5825,6.08 Z" id="Path"></path>
            <path d="M57.915,7.23 C57.7616667,7.37666667 57.5783333,7.45 57.365,7.45 C57.1516667,7.45 56.97,7.375 56.82,7.225 C56.67,7.075 56.595,6.89 56.595,6.67 C56.595,6.45666667 56.67,6.275 56.82,6.125 C56.97,5.975 57.1516667,5.9 57.365,5.9 C57.5783333,5.9 57.7616667,5.975 57.915,6.125 C58.0683333,6.275 58.145,6.45666667 58.145,6.67 C58.145,6.89 58.0683333,7.07666667 57.915,7.23 Z" id="Path"></path>
            <path d="M0,16.97 C0,16.57 0.126666667,16.245 0.38,15.995 C0.633333333,15.745 1.02333333,15.5966667 1.55,15.55 L3.61,15.36 C3.55,14.36 3.05666667,13.86 2.13,13.86 C1.71,13.86 1.36,13.9683333 1.08,14.185 C0.8,14.4016667 0.66,14.75 0.66,15.23 L0,15.23 C0,14.7033333 0.188333333,14.25 0.565,13.87 C0.941666667,13.49 1.46333333,13.3 2.13,13.3 C2.80333333,13.3 3.32833333,13.5083333 3.705,13.925 C4.08166667,14.3416667 4.27,14.8766667 4.27,15.53 L4.27,17.79 L5,17.79 L5,18.35 L4.16,18.35 C3.79333333,18.35 3.61,18.1666667 3.61,17.8 L3.61,17.5 L3.71,17 L3.51,17 C3.40333333,17.42 3.19666667,17.7666667 2.89,18.04 C2.58333333,18.3133333 2.16,18.45 1.62,18.45 C1.28666667,18.45 1.005,18.4 0.775,18.3 C0.545,18.2 0.378333333,18.0666667 0.275,17.9 C0.171666667,17.7333333 0.1,17.5766667 0.06,17.43 C0.02,17.2833333 0,17.13 0,16.97 Z M0.66,16.91 C0.66,17.2233333 0.75,17.465 0.93,17.635 C1.11,17.805 1.36,17.89 1.68,17.89 C2.26,17.89 2.72666667,17.7033333 3.08,17.33 C3.43333333,16.9566667 3.61,16.4866667 3.61,15.92 L1.65,16.11 C1.31,16.1433333 1.06,16.22 0.9,16.34 C0.74,16.46 0.66,16.65 0.66,16.91 Z" id="Shape"></path>
            <path d="M5.7125,18.35 L5.7125,17.79 L7.1025,17.79 L7.1025,11.46 L6.1125,11.56 L6.1125,11 L7.1125,10.9 C7.3325,10.8733333 7.49583333,10.9166667 7.6025,11.03 C7.70916667,11.1433333 7.7625,11.3166667 7.7625,11.55 L7.7625,17.79 L9.1525,17.79 L9.1525,18.35 L5.7125,18.35 Z" id="Path"></path>
            <path d="M9.965,18.35 L9.965,17.79 L11.355,17.79 L11.355,11.46 L10.365,11.56 L10.365,11 L11.365,10.9 C11.585,10.8733333 11.7483333,10.9166667 11.855,11.03 C11.9616667,11.1433333 12.015,11.3166667 12.015,11.55 L12.015,17.79 L13.405,17.79 L13.405,18.35 L9.965,18.35 Z" id="Path"></path>
            <path d="M19.16,17.9 L20.89,17.79 L20.89,18.35 L19.15,18.45 C18.93,18.4633333 18.7666667,18.415 18.66,18.305 C18.5533333,18.195 18.5,18.0266667 18.5,17.8 L18.5,13.96 L17.43,13.96 L17.43,13.4 L18.5,13.4 L18.5,12.05 L19.16,11.85 L19.16,13.4 L20.69,13.4 L20.69,13.96 L19.16,13.96 L19.16,17.9 Z" id="Path"></path>
            <path d="M24.7725,13.3 C25.3391667,13.3 25.7825,13.4616667 26.1025,13.785 C26.4225,14.1083333 26.5825,14.5966667 26.5825,15.25 L26.5825,18.35 L25.9225,18.35 L25.9225,15.33 C25.9225,14.81 25.8175,14.435 25.6075,14.205 C25.3975,13.975 25.0691667,13.86 24.6225,13.86 C24.0758333,13.86 23.6291667,14.065 23.2825,14.475 C22.9358333,14.885 22.7625,15.42 22.7625,16.08 L22.7625,18.35 L22.1025,18.35 L22.1025,11 L22.7625,11 L22.7625,14.31 L22.6625,14.81 L22.8625,14.81 C22.9691667,14.3433333 23.1841667,13.975 23.5075,13.705 C23.8308333,13.435 24.2525,13.3 24.7725,13.3 Z" id="Path"></path>
            <path d="M27.795,15.81 C27.795,15.0233333 28.0116667,14.4083333 28.445,13.965 C28.8783333,13.5216667 29.445,13.3 30.145,13.3 C30.8383333,13.3 31.3866667,13.5116667 31.79,13.935 C32.1933333,14.3583333 32.395,14.95 32.395,15.71 L32.395,15.99 L28.455,15.99 C28.4883333,16.5566667 28.6466667,17.015 28.93,17.365 C29.2133333,17.715 29.655,17.89 30.255,17.89 C31.1483333,17.89 31.6983333,17.4666667 31.905,16.62 L32.565,16.62 C32.505,16.84 32.4266667,17.0466667 32.33,17.24 C32.2333333,17.4333333 32.0983333,17.6266667 31.925,17.82 C31.7516667,18.0133333 31.5216667,18.1666667 31.235,18.28 C30.9483333,18.3933333 30.6216667,18.45 30.255,18.45 C29.4283333,18.45 28.8116667,18.2033333 28.405,17.71 C27.9983333,17.2166667 27.795,16.5833333 27.795,15.81 Z M28.455,15.43 L31.735,15.43 C31.735,14.9766667 31.5933333,14.6016667 31.31,14.305 C31.0266667,14.0083333 30.6383333,13.86 30.145,13.86 C29.6516667,13.86 29.2466667,14.01 28.93,14.31 C28.6133333,14.61 28.455,14.9833333 28.455,15.43 Z" id="Shape"></path>
            <path d="M38.52,17.9 L40.25,17.79 L40.25,18.35 L38.51,18.45 C38.29,18.4633333 38.1266667,18.415 38.02,18.305 C37.9133333,18.195 37.86,18.0266667 37.86,17.8 L37.86,13.96 L36.79,13.96 L36.79,13.4 L37.86,13.4 L37.86,12.05 L38.52,11.85 L38.52,13.4 L40.05,13.4 L40.05,13.96 L38.52,13.96 L38.52,17.9 Z" id="Path"></path>
            <path d="M43.2125,12.35 C43.0791667,12.4833333 42.9191667,12.55 42.7325,12.55 C42.5458333,12.55 42.3875,12.4833333 42.2575,12.35 C42.1275,12.2166667 42.0625,12.0566667 42.0625,11.87 C42.0625,11.69 42.1275,11.5333333 42.2575,11.4 C42.3875,11.2666667 42.5458333,11.2 42.7325,11.2 C42.9191667,11.2 43.0791667,11.2666667 43.2125,11.4 C43.3458333,11.5333333 43.4125,11.69 43.4125,11.87 C43.4125,12.0566667 43.3458333,12.2166667 43.2125,12.35 Z M41.1625,18.35 L41.1625,17.79 L42.5525,17.79 L42.5525,13.86 L41.5625,13.96 L41.5625,13.4 L42.5625,13.3 C42.9691667,13.2666667 43.1725,13.45 43.1725,13.85 L43.1725,17.79 L44.5625,17.79 L44.5625,18.35 L41.1625,18.35 Z" id="Shape"></path>
            <path d="M51.665,13.3 C52.145,13.3 52.5166667,13.4666667 52.78,13.8 C53.0433333,14.1333333 53.175,14.5733333 53.175,15.12 L53.175,18.35 L52.515,18.35 L52.515,15.33 C52.515,14.8233333 52.4366667,14.4516667 52.28,14.215 C52.1233333,13.9783333 51.8416667,13.86 51.435,13.86 C50.9283333,13.86 50.5216667,14.065 50.215,14.475 C49.9083333,14.885 49.755,15.42 49.755,16.08 L49.755,18.35 L49.095,18.35 L49.095,15.33 C49.095,14.8233333 49.0166667,14.4516667 48.86,14.215 C48.7033333,13.9783333 48.4216667,13.86 48.015,13.86 C47.5083333,13.86 47.1016667,14.065 46.795,14.475 C46.4883333,14.885 46.335,15.42 46.335,16.08 L46.335,18.35 L45.675,18.35 L45.675,13.4 L46.335,13.4 L46.335,14.31 L46.235,14.81 L46.435,14.81 C46.6616667,13.8033333 47.265,13.3 48.245,13.3 C48.6783333,13.3 49.0233333,13.4366667 49.28,13.71 C49.5366667,13.9833333 49.6883333,14.35 49.735,14.81 L49.855,14.81 C50.0816667,13.8033333 50.685,13.3 51.665,13.3 Z" id="Path"></path>
            <path d="M54.3875,15.81 C54.3875,15.0233333 54.6041667,14.4083333 55.0375,13.965 C55.4708333,13.5216667 56.0375,13.3 56.7375,13.3 C57.4308333,13.3 57.9791667,13.5116667 58.3825,13.935 C58.7858333,14.3583333 58.9875,14.95 58.9875,15.71 L58.9875,15.99 L55.0475,15.99 C55.0808333,16.5566667 55.2391667,17.015 55.5225,17.365 C55.8058333,17.715 56.2475,17.89 56.8475,17.89 C57.7408333,17.89 58.2908333,17.4666667 58.4975,16.62 L59.1575,16.62 C59.0975,16.84 59.0191667,17.0466667 58.9225,17.24 C58.8258333,17.4333333 58.6908333,17.6266667 58.5175,17.82 C58.3441667,18.0133333 58.1141667,18.1666667 57.8275,18.28 C57.5408333,18.3933333 57.2141667,18.45 56.8475,18.45 C56.0208333,18.45 55.4041667,18.2033333 54.9975,17.71 C54.5908333,17.2166667 54.3875,16.5833333 54.3875,15.81 Z M55.0475,15.43 L58.3275,15.43 C58.3275,14.9766667 58.1858333,14.6016667 57.9025,14.305 C57.6191667,14.0083333 57.2308333,13.86 56.7375,13.86 C56.2441667,13.86 55.8391667,14.01 55.5225,14.31 C55.2058333,14.61 55.0475,14.9833333 55.0475,15.43 Z" id="Shape"></path>
            <path d="M61.49,18.23 C61.3366667,18.3766667 61.1533333,18.45 60.94,18.45 C60.7266667,18.45 60.545,18.375 60.395,18.225 C60.245,18.075 60.17,17.89 60.17,17.67 C60.17,17.4566667 60.245,17.275 60.395,17.125 C60.545,16.975 60.7266667,16.9 60.94,16.9 C61.1533333,16.9 61.3366667,16.975 61.49,17.125 C61.6433333,17.275 61.72,17.4566667 61.72,17.67 C61.72,17.89 61.6433333,18.0766667 61.49,18.23 Z" id="Path"></path>
        </g>
    </g>
</svg>