<?xml version="1.0" encoding="UTF-8"?>
<svg width="94px" height="25px" viewBox="0 0 94 25" version="1.1" xmlns="http://www.w3.org/2000/svg" xmlns:xlink="http://www.w3.org/1999/xlink">
    <title>Artboard</title>
    <g id="Artboard" stroke="none" stroke-width="1" fill="none" fill-rule="evenodd">
        <g id="Group" transform="translate(3.456000, 1.890000)" fill="#000000" fill-rule="nonzero">
            <g id="escrtd">
                <path d="M0,12.506 C0,10.4606667 0.563333333,8.86166667 1.69,7.709 C2.81666667,6.55633333 4.29,5.98 6.11,5.98 C7.91266667,5.98 9.33833333,6.53033333 10.387,7.631 C11.4356667,8.73166667 11.96,10.27 11.96,12.246 L11.96,12.974 L1.716,12.974 C1.80266667,14.4473333 2.21433333,15.639 2.951,16.549 C3.68766667,17.459 4.836,17.914 6.396,17.914 C8.71866667,17.914 10.1486667,16.8133333 10.686,14.612 L12.402,14.612 C12.246,15.184 12.0423333,15.7213333 11.791,16.224 C11.5396667,16.7266667 11.1886667,17.2293333 10.738,17.732 C10.2873333,18.2346667 9.68933333,18.6333333 8.944,18.928 C8.19866667,19.2226667 7.34933333,19.37 6.396,19.37 C4.24666667,19.37 2.64333333,18.7286667 1.586,17.446 C0.528666667,16.1633333 0,14.5166667 0,12.506 Z M1.716,11.518 L10.244,11.518 C10.244,10.3393333 9.87566667,9.36433333 9.139,8.593 C8.40233333,7.82166667 7.39266667,7.436 6.11,7.436 C4.82733333,7.436 3.77433333,7.826 2.951,8.606 C2.12766667,9.386 1.716,10.3566667 1.716,11.518 Z" id="Shape"></path>
                <path d="M25.3565,15.808 C25.3565,16.8653333 24.9795,17.7233333 24.2255,18.382 C23.4715,19.0406667 22.2191667,19.37 20.4685,19.37 C16.6725,19.37 14.7745,17.6973333 14.7745,14.352 L16.4905,14.352 C16.4905,16.7266667 17.8165,17.914 20.4685,17.914 C21.5778333,17.914 22.3838333,17.7623333 22.8865,17.459 C23.3891667,17.1556667 23.6405,16.6486667 23.6405,15.938 C23.6405,15.7126667 23.6058333,15.5003333 23.5365,15.301 C23.4671667,15.1016667 23.3891667,14.9283333 23.3025,14.781 C23.2158333,14.6336667 23.0815,14.495 22.8995,14.365 C22.7175,14.235 22.5571667,14.1266667 22.4185,14.04 C22.2798333,13.9533333 22.0675,13.858 21.7815,13.754 C21.4955,13.65 21.2701667,13.5763333 21.1055,13.533 C20.9408333,13.4896667 20.6895,13.416 20.3515,13.312 C20.0135,13.208 19.7578333,13.13 19.5845,13.078 C18.1458333,12.6446667 17.0841667,12.1636667 16.3995,11.635 C15.7148333,11.1063333 15.3725,10.3306667 15.3725,9.308 C15.3725,8.30266667 15.7711667,7.49666667 16.5685,6.89 C17.3658333,6.28333333 18.4665,5.98 19.8705,5.98 C20.8065,5.98 21.6168333,6.10133333 22.3015,6.344 C22.9861667,6.58666667 23.5105,6.92033333 23.8745,7.345 C24.2385,7.76966667 24.5028333,8.22033333 24.6675,8.697 C24.8321667,9.17366667 24.9145,9.68066667 24.9145,10.218 L23.1985,10.218 C23.1985,8.36333333 22.0891667,7.436 19.8705,7.436 C18.0158333,7.436 17.0885,8.02533333 17.0885,9.204 C17.0885,9.84533333 17.2878333,10.3176667 17.6865,10.621 C18.0851667,10.9243333 18.8478333,11.258 19.9745,11.622 C20.1305,11.674 20.4468333,11.7736667 20.9235,11.921 C21.4001667,12.0683333 21.7295,12.1723333 21.9115,12.233 C22.0935,12.2936667 22.3838333,12.4063333 22.7825,12.571 C23.1811667,12.7356667 23.4671667,12.8743333 23.6405,12.987 C23.8138333,13.0996667 24.0348333,13.26 24.3035,13.468 C24.5721667,13.676 24.7671667,13.8883333 24.8885,14.105 C25.0098333,14.3216667 25.1181667,14.573 25.2135,14.859 C25.3088333,15.145 25.3565,15.4613333 25.3565,15.808 Z" id="Path"></path>
                <path d="M29.445,17.446 C28.301,16.146 27.729,14.5513333 27.729,12.662 C27.729,10.7726667 28.3053333,9.18666667 29.458,7.904 C30.6106667,6.62133333 32.1923333,5.98 34.203,5.98 C35.5723333,5.98 36.842,6.396 38.012,7.228 C39.182,8.06 39.8536667,9.32533333 40.027,11.024 L38.285,11.024 C37.921,8.632 36.5603333,7.436 34.203,7.436 C32.643,7.436 31.46,7.93433333 30.654,8.931 C29.848,9.92766667 29.445,11.1713333 29.445,12.662 C29.445,14.17 29.848,15.4223333 30.654,16.419 C31.46,17.4156667 32.643,17.914 34.203,17.914 C36.5603333,17.914 37.921,16.718 38.285,14.326 L40.027,14.326 C39.8536667,16.0246667 39.182,17.29 38.012,18.122 C36.842,18.954 35.5723333,19.37 34.203,19.37 C32.1923333,19.37 30.6063333,18.7286667 29.445,17.446 Z" id="Path"></path>
                <path d="M43.1795,19.11 L43.1795,7.67 C43.1795,6.49133333 43.7428333,5.928 44.8695,5.98 L51.7595,6.24 L51.7595,7.696 L44.8955,7.436 L44.8955,19.11 L43.1795,19.11 Z" id="Path"></path>
                <path d="M57.85,17.94 L62.348,17.654 L62.348,19.11 L57.824,19.37 C57.252,19.4046667 56.8273333,19.279 56.55,18.993 C56.2726667,18.707 56.134,18.2693333 56.134,17.68 L56.134,7.696 L53.352,7.696 L53.352,6.24 L56.134,6.24 L56.134,2.73 L57.85,2.21 L57.85,6.24 L61.828,6.24 L61.828,7.696 L57.85,7.696 L57.85,17.94 Z" id="Path"></path>
                <path d="M77.6685,19.11 L75.9525,19.11 L75.9525,17.004 L76.2125,15.704 L75.6925,15.704 C75.4151667,16.796 74.8171667,17.68 73.8985,18.356 C72.9798333,19.032 71.8271667,19.37 70.4405,19.37 C68.5858333,19.37 67.0821667,18.7416667 65.9295,17.485 C64.7768333,16.2283333 64.2005,14.6206667 64.2005,12.662 C64.2005,10.7206667 64.7768333,9.12166667 65.9295,7.865 C67.0821667,6.60833333 68.5858333,5.98 70.4405,5.98 C71.8271667,5.98 72.9798333,6.318 73.8985,6.994 C74.8171667,7.67 75.4151667,8.554 75.6925,9.646 L76.2125,9.646 L75.9525,8.346 L75.9525,0 L77.6685,0 L77.6685,19.11 Z M75.9525,12.662 C75.9525,10.9286667 75.4671667,9.62433333 74.4965,8.749 C73.5258333,7.87366667 72.2951667,7.436 70.8045,7.436 C69.3485,7.436 68.1698333,7.86933333 67.2685,8.736 C66.3671667,9.60266667 65.9165,10.9113333 65.9165,12.662 C65.9165,14.43 66.3628333,15.7473333 67.2555,16.614 C68.1481667,17.4806667 69.3311667,17.914 70.8045,17.914 C72.2951667,17.914 73.5258333,17.4763333 74.4965,16.601 C75.4671667,15.7256667 75.9525,14.4126667 75.9525,12.662 Z" id="Shape"></path>
            </g>
            <g id="®" transform="translate(79.920000, 0.190000)">
                <path d="M6.384,6.352 C5.69066667,7.06666667 4.8,7.424 3.712,7.424 C2.624,7.424 1.73333333,7.06666667 1.04,6.352 C0.346666667,5.63733333 0,4.75733333 0,3.712 C0,2.66666667 0.346666667,1.78666667 1.04,1.072 C1.73333333,0.357333333 2.624,0 3.712,0 C4.8,0 5.69066667,0.357333333 6.384,1.072 C7.07733333,1.78666667 7.424,2.66666667 7.424,3.712 C7.424,4.75733333 7.07733333,5.63733333 6.384,6.352 Z M1.568,5.824 C2.13333333,6.4 2.848,6.688 3.712,6.688 C4.576,6.688 5.288,6.39733333 5.848,5.816 C6.408,5.23466667 6.688,4.53333333 6.688,3.712 C6.688,2.89066667 6.408,2.18933333 5.848,1.608 C5.288,1.02666667 4.576,0.736 3.712,0.736 C2.848,0.736 2.136,1.02666667 1.576,1.608 C1.016,2.18933333 0.736,2.89066667 0.736,3.712 C0.736,4.53333333 1.01333333,5.23733333 1.568,5.824 Z M2.128,5.536 L2.128,1.84 L3.632,1.84 C4.848,1.84 5.456,2.19733333 5.456,2.912 C5.456,3.18933333 5.37333333,3.38666667 5.208,3.504 C5.04266667,3.62133333 4.77866667,3.696 4.416,3.728 L4.416,4.048 L5.056,4.048 C5.32266667,4.048 5.456,4.18133333 5.456,4.448 L5.456,5.536 L4.72,5.536 L4.72,4.288 L2.864,4.288 L2.864,5.536 L2.128,5.536 Z M2.864,3.552 L3.632,3.552 C3.90933333,3.552 4.10933333,3.54666667 4.232,3.536 C4.35466667,3.52533333 4.46666667,3.48266667 4.568,3.408 C4.66933333,3.33333333 4.72,3.216 4.72,3.056 C4.72,2.90666667 4.66933333,2.79466667 4.568,2.72 C4.46666667,2.64533333 4.35466667,2.60266667 4.232,2.592 C4.10933333,2.58133333 3.90933333,2.576 3.632,2.576 L2.864,2.576 L2.864,3.552 Z" id="Shape"></path>
            </g>
        </g>
    </g>
</svg>