<?xml version="1.0" encoding="UTF-8"?>
<svg width="112px" height="30px" viewBox="0 0 112 30" version="1.1" xmlns="http://www.w3.org/2000/svg" xmlns:xlink="http://www.w3.org/1999/xlink">
    <!-- Generator: Sketch 52.5 (67469) - http://www.bohemiancoding.com/sketch -->
    <title>Logo on black</title>
    <desc>Created with Sketch.</desc>
    <defs>
        <polygon id="path-1" points="0.000243900973 0.23393533 111.250969 0.23393533 111.250969 29.6511628 0.000243900973 29.6511628"></polygon>
    </defs>
    <g id="1920" stroke="none" stroke-width="1" fill="none" fill-rule="evenodd">
        <g id="0.1-1920" transform="translate(-904.000000, -25.000000)">
            <g id="Logo-on-black" transform="translate(904.000000, 25.000000)">
                <g id="Group-3">
                    <mask id="mask-2" fill="white">
                        <use xlink:href="#path-1"></use>
                    </mask>
                    <g id="Clip-2"></g>
                    <path d="M0.0291694352,14.9466295 C0.0291694352,14.1466295 0.0823255814,13.3426295 0.014551495,12.5479628 C-0.0538870432,11.7406295 0.279003322,11.2906295 0.952757475,10.8919628 C5.65774086,8.10862946 10.3421262,5.29062946 15.0331561,2.48462946 C16.1261794,1.83062946 17.2378073,1.20529612 18.3102326,0.518629457 C18.9281728,0.122629457 19.4431229,0.152629457 20.0670432,0.528629457 C25.6351495,3.88396279 31.221196,7.21062946 36.7906312,10.5632961 C37.2278405,10.8266295 37.5368106,10.8519628 37.9912957,10.5779628 C43.5580731,7.21929612 49.1441196,3.89329612 54.7115615,0.535296124 C55.3640532,0.141962791 55.8883056,0.154629457 56.5381395,0.546629457 C62.0823256,3.89129612 67.6457807,7.20396279 73.1919601,10.5452961 C73.6537542,10.8239628 73.9886379,10.8426295 74.4637209,10.5566295 C79.9859801,7.22796279 85.531495,3.93596279 91.049103,0.599296124 C91.787309,0.151962791 92.3500997,0.165962791 93.0823256,0.608629457 C98.7833223,4.05329612 104.500266,7.47196279 110.232492,10.8639628 C110.964718,11.2966295 111.28299,11.7826295 111.248439,12.6472961 C111.185316,14.2712961 111.215216,15.8999628 111.238472,17.5259628 C111.246445,18.1186295 111.057076,18.5092961 110.527508,18.8246295 C104.623854,22.3412961 98.7281728,25.8746295 92.8384718,29.4159628 C92.2617276,29.7632961 91.7826578,29.7079628 91.2192027,29.3686295 C85.6936213,26.0439628 80.1514286,22.7479628 74.6304983,19.4166295 C74.0630565,19.0739628 73.6570764,19.0526295 73.0743522,19.4046295 C67.5793355,22.7266295 62.056412,26.0039628 56.559402,29.3226295 C55.8750166,29.7359628 55.3401329,29.7239628 54.6610631,29.3139628 C49.1175415,25.9699628 43.552093,22.6626295 38.0065781,19.3212961 C37.5600664,19.0519628 37.2530897,19.0372961 36.8019269,19.3086295 C31.2783389,22.6366295 25.7341528,25.9292961 20.2158804,29.2659628 C19.4544186,29.7259628 18.8736877,29.7119628 18.1095681,29.2499628 C12.434485,25.8139628 6.73813953,22.4126295 1.02983389,19.0326295 C0.308903654,18.6059628 -0.0771428571,18.1432961 0.0132225914,17.2646295 C0.0909634551,16.4992961 0.0291694352,15.7199628 0.0291694352,14.9466295" id="Fill-1" fill="#FFFFFF" mask="url(#mask-2)"></path>
                </g>
                <path d="M2.79069767,12.0062853 C5.31037682,10.5041353 7.77056721,9.0390265 10.2294356,7.57259476 C12.9923577,5.92492609 15.7572627,4.28056466 18.5122529,2.61966702 C18.8354751,2.42453966 19.0707862,2.36170203 19.4283797,2.57667285 C24.5840715,5.67026835 29.7503391,8.74666618 34.9133018,11.8276941 C34.9946031,11.8766414 35.0706165,11.9348488 35.2325581,12.0466337 C33.2614975,13.2273196 31.3704162,14.3643499 29.4760299,15.4947657 C26.1697773,17.4685285 22.8608807,19.4369998 19.555289,21.4107627 C19.2360327,21.6019214 18.9888239,21.7441328 18.5724026,21.4934438 C13.4219987,18.3919109 8.25440906,15.3194818 3.09210735,12.2377923 C3.00816211,12.1875222 2.93611462,12.1187316 2.79069767,12.0062853" id="Fill-4" fill="#121213"></path>
                <path d="M108.488372,12.0331265 C106.516039,13.208162 104.658246,14.3115409 102.803764,15.4202278 C99.470859,17.4146697 96.1359682,19.4071213 92.8110085,21.414833 C92.3912506,21.668285 92.084046,21.720037 91.6152943,21.4360646 C86.6622829,18.4437381 81.688747,15.485913 76.721832,12.517472 C76.4960631,12.3827842 76.2755909,12.2414614 76.0465116,12.0994752 C76.1054366,11.7975886 76.3749027,11.7597699 76.5576364,11.6502945 C81.5675866,8.65000619 86.5848196,5.66232414 91.5907973,2.65540096 C92.0178382,2.39863148 92.3177598,2.35218739 92.7845254,2.63350589 C97.9646298,5.75985673 103.163935,8.85369671 108.488372,12.0331265" id="Fill-6" fill="#121213"></path>
                <path d="M39.4186047,12.0035556 C41.2002282,10.9385447 42.9122313,9.91126269 44.6275495,8.88927591 C48.1019476,6.82014982 51.5776718,4.75433328 55.0520699,2.68454528 C55.4167491,2.46677737 55.7078293,2.31189077 56.1812492,2.59717335 C61.276149,5.66247179 66.3929295,8.69268908 71.5010904,11.7368064 C71.6277335,11.8116021 71.8067578,11.8400642 71.8604651,12.0995323 C70.4793256,12.9229465 69.0809467,13.7569513 67.6812416,14.5896322 C63.8434905,16.8738786 60.0030871,19.1534916 56.1713034,21.4476666 C55.8503858,21.6396201 55.6216325,21.71243 55.2576163,21.4940002 C50.0891177,18.3969301 44.908684,15.3197174 39.7315657,12.2358855 C39.648021,12.1862423 39.5744221,12.1207134 39.4186047,12.0035556" id="Fill-8" fill="#121213"></path>
                <path d="M1.75798568,13.9534884 C2.70282535,14.5083552 3.54320035,14.9962667 4.37758692,15.4921333 C8.77641441,18.1053769 13.1705842,20.7272385 17.5793924,23.323909 C18.0019087,23.5731681 18.1589384,23.8343599 18.1376463,24.3182939 C18.0957273,25.2377685 18.1250041,26.1612206 18.1250041,27.2093023 C16.9472814,26.5145587 15.859385,25.8755007 14.7748155,25.2311393 C10.6268363,22.7670534 6.48351477,20.2943496 2.32688562,17.844848 C1.91102309,17.5995664 1.72338592,17.3450039 1.74600884,16.851126 C1.78726241,15.9309885 1.75798568,15.0075364 1.75798568,13.9534884" id="Fill-10" fill="#121213"></path>
                <path d="M38.3861248,13.9534884 C41.6492268,15.9136762 44.7710632,17.7906517 47.8948987,19.6649429 C49.9712364,20.911115 52.041577,22.1673532 54.1325743,23.3880248 C54.6070135,23.6651756 54.8002542,23.9812483 54.7629387,24.5335368 C54.713629,25.2542632 54.726956,25.9817002 54.757608,26.7044398 C54.7842618,27.3292035 54.5956856,27.2969923 54.1412368,27.0218547 C50.4536717,24.7885424 46.755445,22.573349 43.0592174,20.3541291 C41.6678846,19.5179792 40.2798834,18.6751185 38.8765563,17.8591006 C38.5140635,17.6477143 38.3554729,17.4161961 38.3734642,16.9739627 C38.4141114,16.0183627 38.3861248,15.0594074 38.3861248,13.9534884" id="Fill-12" fill="#121213"></path>
                <path d="M109.528717,13.9534884 C109.528717,15.1024373 109.518695,16.1153089 109.534731,17.1275101 C109.539408,17.4318408 109.437177,17.6074677 109.172578,17.7649957 C103.905988,20.9034898 98.6454114,24.0520389 93.3821624,27.1952254 C93.3440761,27.2180166 93.28394,27.202599 93.1449587,27.2093023 C93.1449587,26.1468262 93.1543132,25.0897128 93.1396132,24.0325993 C93.1356042,23.7651369 93.2859445,23.6619057 93.4743711,23.54929 C98.7790473,20.3799606 104.083723,17.2086202 109.528717,13.9534884" id="Fill-14" fill="#121213"></path>
                <path d="M56.5116279,27.1897491 C56.5116279,26.1238458 56.5116279,25.0532112 56.5116279,23.9819008 C56.5116279,23.7257325 56.6925594,23.614884 56.878832,23.5026836 C62.1365276,20.3306583 67.3942233,17.1572812 72.6532541,13.9866077 C72.6933128,13.9622751 72.7534007,13.9717378 72.9036206,13.9534884 C72.9036206,15.0531869 72.8989471,16.1420709 72.9069588,17.230955 C72.9089618,17.4715774 72.7427184,17.5506583 72.587825,17.6446092 C67.3074295,20.8321803 62.0270341,24.0177238 56.7446356,27.2005635 C56.7079152,27.2221925 56.644489,27.1978599 56.5116279,27.1897491" id="Fill-16" fill="#121213"></path>
                <path d="M20.2372968,27.1949324 C20.2372968,26.1532484 20.2439691,25.1324791 20.2326261,24.1117098 C20.2299572,23.8431928 20.3053545,23.6718277 20.5462256,23.5267746 C25.8573993,20.3410028 31.1639024,17.1464603 36.4717399,13.9552912 C36.4870863,13.9465205 36.5211151,13.9708085 36.623869,14.0052164 C36.623869,15.0448764 36.6171967,16.1121977 36.6278724,17.1788443 C36.6305413,17.4439879 36.4784122,17.5539584 36.2882509,17.6686516 C31.0030992,20.8463274 25.7199493,24.0267019 20.4347977,27.2050524 C20.4174497,27.215847 20.3860897,27.203703 20.2372968,27.1949324" id="Fill-18" fill="#121213"></path>
                <path d="M74.668166,13.9534884 C77.2268319,15.4698042 79.6680115,16.9157482 82.1085235,18.3636838 C84.9201855,20.0326935 87.7258398,21.7136531 90.550185,23.3614184 C90.9300131,23.5831564 91.0595151,23.8095416 91.0454968,24.2304454 C91.0147902,25.1791386 91.0361513,26.1291596 91.0361513,27.2093023 C89.3699812,26.2254231 87.7986012,25.2999659 86.2298914,24.3698614 C82.5944897,22.2135593 78.9677661,20.0426518 75.3183462,17.9115774 C74.806346,17.6134925 74.622106,17.2968188 74.6548153,16.7225573 C74.705548,15.850211 74.668166,14.9732174 74.668166,13.9534884" id="Fill-20" fill="#121213"></path>
            </g>
        </g>
    </g>
</svg>