<?xml version="1.0" encoding="UTF-8"?>
<svg width="50px" height="40px" viewBox="0 0 50 40" version="1.1" xmlns="http://www.w3.org/2000/svg" xmlns:xlink="http://www.w3.org/1999/xlink">
    <!-- Generator: Sketch 52.5 (67469) - http://www.bohemiancoding.com/sketch -->
    <title>Fill 1</title>
    <desc>Created with Sketch.</desc>
    <g id="1920" stroke="none" stroke-width="1" fill="none" fill-rule="evenodd">
        <g id="1.1-1920" transform="translate(-1663.000000, -710.000000)" fill="#000000">
            <path d="M1692.88334,710.700281 C1692.88334,710.829989 1692.88334,711.084423 1693.01305,711.209149 L1710.89317,729.089265 L1663.63858,729.089265 C1663.25443,729.089265 1663,729.343699 1663,729.72784 C1663,730.111982 1663.25443,730.366416 1663.63858,730.366416 L1710.89317,730.366416 L1693.01305,748.246532 C1692.88334,748.376239 1692.88334,748.500966 1692.88334,748.7554 C1692.88334,749.009834 1692.88334,749.139541 1693.01305,749.264268 C1693.26749,749.518702 1693.65163,749.518702 1693.90606,749.264268 L1712.80917,730.361154 C1713.06361,730.10672 1713.06361,729.722579 1712.80917,729.468144 L1694.03633,710.190826 C1693.7819,709.936391 1693.39775,709.936391 1693.14332,710.190826 C1693.01361,710.315552 1692.88391,710.44526 1692.88391,710.699694 L1692.88334,710.700281 Z" id="Fill-1"></path>
        </g>
    </g>
</svg>